<svg viewBox="0 0 40 40" xmlns="http://www.w3.org/2000/svg" xmlns:xlink="http://www.w3.org/1999/xlink" width="40.000000" height="40.000000" fill="none">
	<rect id="free-icon-font-download-3917768 1" width="40.000000" height="40.000000" x="0.000000" y="0.000000" />
	<g id="Group 1">
		<path id="Vector 1" d="M14.7516 29.5C17.6805 32.429 22.4293 32.429 25.3583 29.5001L25.3584 29.5L30.7117 24.1466C31.7048 23.1874 31.7323 21.6048 30.7731 20.6116C29.8139 19.6185 28.2312 19.591 27.2381 20.5502C27.2173 20.5703 27.1968 20.5909 27.1767 20.6116L22.5383 25.2483L22.5 2.5C22.5 1.1193 21.3807 0 20 0C18.6193 0 17.5 1.1193 17.5 2.5L17.535 25.2116L12.9333 20.61C11.9402 19.6508 10.3576 19.6783 9.39835 20.6714C8.46265 21.6402 8.46265 23.1762 9.39835 24.145L14.7516 29.5Z" fill="rgb(56,56,56)" fill-rule="nonzero" />
		<path id="Vector 2" d="M37.5 24.1666C36.1193 24.1666 35 25.2859 35 26.6666L35 34.3183C34.9991 34.6944 34.6945 34.999 34.3184 34.9999L5.68164 34.9999C5.30555 34.999 5.00086 34.6944 5 34.3183L5 26.6666C5 25.2859 3.8807 24.1666 2.5 24.1666C1.1193 24.1666 0 25.2859 0 26.6666L0 34.3183C0.00367187 37.4547 2.54531 39.9963 5.68164 40L34.3183 40C37.4547 39.9963 39.9963 37.4547 39.9999 34.3183L39.9999 26.6667C40 25.2859 38.8807 24.1666 37.5 24.1666Z" fill="rgb(56,56,56)" fill-rule="nonzero" />
	</g>
</svg>
