<svg viewBox="0 0 40 40" xmlns="http://www.w3.org/2000/svg" xmlns:xlink="http://www.w3.org/1999/xlink" width="40.000000" height="40.000000" fill="none">
	<rect id="free-icon-font-microphone-3917737 1" width="40.000000" height="40.000000" x="0.000000" y="0.000000" />
	<path id="Vector 1" d="M20 31.6667C22.0473 31.6643 24.0579 31.1239 25.8305 30.0996C27.6031 29.0753 29.0753 27.6031 30.0996 25.8305C31.1239 24.0579 31.6643 22.0473 31.6667 20L31.6667 11.6667C31.6667 9.20291 30.8867 6.80239 29.4385 4.80917C27.9904 2.81595 25.9484 1.33235 23.6052 0.571007C21.262 -0.190336 18.738 -0.190336 16.3948 0.571008C14.0516 1.33235 12.0096 2.81595 10.5615 4.80917C9.11332 6.8024 8.33334 9.20291 8.33334 11.6667L8.33334 20C8.33568 22.0473 8.87608 24.0579 9.90038 25.8305C10.9247 27.6031 12.3969 29.0753 14.1695 30.0996C15.9421 31.1239 17.9528 31.6643 20 31.6667ZM20 5C21.1703 5 22.3199 5.30804 23.3333 5.89316C24.3468 6.47829 25.1884 7.31987 25.7735 8.33333C26.3586 9.3468 26.6667 10.4964 26.6667 11.6667L26.6667 13.3333L21.6667 13.3333L21.6667 18.3333L26.6667 18.3333L26.6667 20C26.6667 21.4079 26.221 22.7796 25.3935 23.9186C24.5659 25.0576 23.3991 25.9053 22.0601 26.3404C20.7212 26.7754 19.2789 26.7754 17.9399 26.3404C16.6009 25.9053 15.4341 25.0576 14.6066 23.9186C13.779 22.7796 13.3333 21.4079 13.3333 20L13.3333 18.3333L18.3333 18.3333L18.3333 13.3333L13.3333 13.3333L13.3333 11.6667C13.3333 10.4964 13.6414 9.34679 14.2265 8.33333C14.8116 7.31987 15.6532 6.47829 16.6667 5.89316C17.6801 5.30804 18.8298 5 20 5Z" fill="rgb(0,0,0)" fill-rule="nonzero" />
	<path id="Vector 2" d="M35 21.6667L35 22.315C34.9974 24.5409 34.4098 26.7271 33.296 28.6544C32.1823 30.5816 30.5816 32.1823 28.6543 33.2961C26.7271 34.4098 24.5409 34.9974 22.315 35L17.685 35C15.4592 34.9971 13.2732 34.4093 11.346 33.2956C9.41887 32.1818 7.81823 30.5812 6.70447 28.654C5.5907 26.7269 5.00292 24.5409 5 22.315L5 21.6667L0 21.6667L0 22.315C0.00350475 25.4184 0.822651 28.4663 2.37534 31.1533C3.92803 33.8403 6.15972 36.072 8.84672 37.6247C11.5337 39.1774 14.5816 39.9965 17.685 40L22.315 40C25.4184 39.9965 28.4663 39.1774 31.1533 37.6247C33.8403 36.072 36.072 33.8403 37.6247 31.1533C39.1773 28.4663 39.9965 25.4184 40 22.315L40 21.6667L35 21.6667Z" fill="rgb(0,0,0)" fill-rule="nonzero" />
</svg>
